<svg xmlns="http://www.w3.org/2000/svg" version="1.0" width="378.000000pt" height="350.000000pt" viewBox="0 0 378.000000 350.000000" preserveAspectRatio="xMidYMid meet">
<g transform="translate(0.000000,350.000000) scale(0.100000,-0.100000)" fill="#000000" stroke="none">
<path d="M2330 2997 l0 -272 -98 -98 -97 -97 -183 0 -183 0 7 -22 c19 -61 79 -162 129 -216 66 -71 132 -116 223 -150 60 -23 85 -26 250 -30 l183 -4 -378 -382 c-224 -225 -406 -418 -447 -471 -37 -49 -94 -144 -126 -210 -95 -192 -127 -341 -137 -627 l-6 -178 736 0 737 0 0 27 c0 42 -46 110 -94 138 -38 22 -54 25 -143 25 l-101 0 44 88 c51 102 67 191 54 299 -5 37 -7 69 -6 71 2 1 122 -146 267 -327 l264 -330 178 0 177 -1 0 23 c-1 33 -34 99 -66 129 -34 32 -73 48 -117 48 -28 1 -40 12 -99 87 l-68 86 0 401 0 401 50 100 c77 154 94 228 94 420 0 176 -14 252 -74 393 -47 112 -81 163 -374 571 l-276 383 0 -211 c0 -116 -3 -211 -7 -211 -5 1 -75 95 -157 210 -83 116 -151 210 -153 210 -2 0 -3 -123 -3 -273z m225 -402 c40 -39 29 -97 -22 -116 -48 -18 -103 23 -103 77 0 24 47 64 75 64 14 0 37 -11 50 -25z"/>
<path d="M197 2512 c118 -42 219 -138 266 -254 22 -52 22 -65 28 -678 5 -611 6 -627 28 -705 69 -245 248 -456 474 -560 92 -42 222 -75 300 -75 l57 0 0 776 c0 676 -2 784 -16 846 -67 292 -283 530 -572 629 l-97 33 -260 3 -260 3 52 -18z"/>
</g>
</svg>